<?xml version="1.0" encoding="utf-8"?>
<!-- Generator: Adobe Illustrator 28.0.0, SVG Export Plug-In . SVG Version: 6.00 Build 0)  -->
<svg version="1.1" id="Layer_1" xmlns="http://www.w3.org/2000/svg" xmlns:xlink="http://www.w3.org/1999/xlink" x="0px" y="0px"
	 viewBox="0 0 1920 1080" style="enable-background:new 0 0 1920 1080;" xml:space="preserve">
<style type="text/css">
	.st0{fill:none;stroke:#000000;stroke-width:4;stroke-linecap:round;stroke-linejoin:round;stroke-miterlimit:10;}
</style>
<path class="st0" d="M1603.5,492.5c30-37,24-39,28-80s42-35,46-66s-30-39-10-74s54-21,62-60s-28-66-28-66"/>
<path class="st0" d="M1631.5,487.5c0,0-20-5-28,6s8-9.2,3-21.6"/>
<g>
	<path d="M1274.1,617.9v-36.3h11.9l10,27.3h0.3l9.8-27.3h11.4v36.3h-7.5l0.4-28.3h-0.5l-10.8,28.3h-6.7l-10.7-28.3h-0.5l0.4,28.3
		H1274.1z"/>
	<path d="M1337.9,618.7c-2.9,0-5.4-0.6-7.6-1.7c-2.2-1.2-3.9-2.9-5.2-5.1c-1.2-2.3-1.9-5.1-1.9-8.4c0-3.4,0.6-6.2,1.9-8.4
		c1.3-2.2,3-3.9,5.2-5c2.2-1.1,4.7-1.7,7.5-1.7c2.9,0,5.4,0.6,7.6,1.7c2.2,1.1,3.9,2.8,5.2,5.1c1.3,2.3,1.9,5.1,1.9,8.4
		c0,3.4-0.6,6.3-1.9,8.5c-1.3,2.2-3,3.9-5.3,5S1340.7,618.7,1337.9,618.7z M1338.1,612.8c0.9,0,1.7-0.1,2.5-0.4
		c0.8-0.3,1.5-0.8,2.1-1.5c0.6-0.7,1.1-1.6,1.4-2.8c0.3-1.2,0.5-2.6,0.5-4.2c0-1.8-0.2-3.2-0.6-4.5c-0.4-1.2-0.9-2.2-1.5-2.9
		c-0.6-0.8-1.4-1.3-2.2-1.6c-0.8-0.3-1.7-0.5-2.6-0.5c-0.8,0-1.7,0.1-2.4,0.4c-0.8,0.3-1.5,0.8-2.1,1.5c-0.6,0.7-1.1,1.6-1.4,2.7
		c-0.4,1.1-0.5,2.5-0.5,4.2c0,1.8,0.2,3.2,0.5,4.5c0.4,1.2,0.9,2.2,1.5,2.9c0.7,0.8,1.4,1.3,2.3,1.6
		C1336.3,612.7,1337.2,612.8,1338.1,612.8z"/>
	<path d="M1358.1,617.9v-14.1v-14.8h6.6l-0.1,10h1c0.3-2.5,0.8-4.5,1.5-6.1s1.7-2.7,2.9-3.5c1.3-0.7,2.8-1.1,4.7-1.1
		c0.4,0,0.8,0,1.2,0.1s0.9,0.1,1.4,0.2l-0.3,8.4c-0.6-0.3-1.3-0.4-1.9-0.6c-0.6-0.1-1.2-0.2-1.8-0.2c-1.4,0-2.6,0.3-3.6,1
		c-1,0.7-1.8,1.6-2.4,2.9c-0.6,1.2-1,2.8-1.3,4.6v13.1H1358.1z"/>
	<path d="M1395,618.7c-2.4,0-4.5-0.3-6.4-1c-1.9-0.7-3.4-1.6-4.7-2.9s-2.3-2.8-2.9-4.6s-1-3.9-1-6.2c0-2.3,0.3-4.4,1-6.3
		c0.6-1.9,1.6-3.6,2.8-5c1.2-1.4,2.7-2.5,4.5-3.3c1.8-0.8,3.8-1.2,6.1-1.2c2.2,0,4.2,0.4,5.9,1.1s3.1,1.8,4.3,3.2
		c1.1,1.4,2,3.2,2.5,5.2c0.5,2.1,0.7,4.4,0.5,7.1l-22.5,0.2v-4.3l17.8-0.2l-2.6,2.3c0.3-1.9,0.1-3.5-0.4-4.8
		c-0.5-1.2-1.2-2.2-2.2-2.8c-1-0.6-2.1-0.9-3.3-0.9c-1.4,0-2.6,0.4-3.7,1.1s-1.9,1.8-2.4,3.2s-0.9,3.1-0.9,5.1c0,3.1,0.7,5.4,2,6.8
		s3.2,2.2,5.4,2.2c1,0,1.9-0.1,2.6-0.4c0.7-0.3,1.3-0.6,1.8-1.1c0.5-0.4,0.8-0.9,1.1-1.5c0.3-0.5,0.5-1.1,0.6-1.7l6.9,1.4
		c-0.3,1.4-0.7,2.6-1.3,3.7s-1.5,2.1-2.5,2.9c-1,0.8-2.3,1.4-3.8,1.9C1398.7,618.5,1397,618.7,1395,618.7z"/>
	<path d="M1436.6,618.6c-1.6,0-3-0.2-4.1-0.6c-1.2-0.4-2.2-1-2.9-1.9c-0.8-0.9-1.4-2-1.8-3.3c-0.4-1.4-0.6-3-0.6-4.8v-12.7h-4.1
		l0.2-6.1h2.6c1.2,0,2.1-0.2,2.7-0.6c0.6-0.4,0.9-1.1,1-2.1l0.7-3.8h4.5v6.4h7.3v6.4h-7.3v12c0,1.5,0.4,2.5,1.1,3
		c0.7,0.5,1.6,0.8,2.7,0.8c0.7,0,1.3-0.1,2-0.2s1.2-0.4,1.7-0.7v7.4c-1.1,0.3-2.2,0.5-3.1,0.7
		C1438.1,618.5,1437.3,618.6,1436.6,618.6z"/>
	<path d="M1447.5,617.9v-17.9v-21.3h7.9v8.9c0,0.7,0,1.5-0.1,2.4c-0.1,0.8-0.1,1.7-0.2,2.6c-0.1,0.9-0.2,1.8-0.4,2.6
		c-0.1,0.9-0.3,1.7-0.5,2.6h1.2c0.5-2,1.2-3.7,2-5.1c0.8-1.4,1.8-2.5,3.1-3.2c1.3-0.8,2.9-1.1,4.8-1.1c1.9,0,3.5,0.4,4.8,1.1
		c1.2,0.7,2.2,1.6,2.9,2.8c0.7,1.1,1.2,2.4,1.5,3.7c0.3,1.3,0.5,2.7,0.6,3.9c0.1,1.3,0.1,2.4,0.1,3.4v14.8h-7.9V604
		c0-1.4-0.1-2.6-0.3-3.7c-0.2-1.1-0.5-2.1-0.9-2.9c-0.4-0.8-0.9-1.4-1.6-1.9c-0.7-0.4-1.5-0.7-2.5-0.7c-1.5,0-2.7,0.4-3.6,1.3
		c-1,0.9-1.7,2.1-2.2,3.6s-0.8,3.3-0.8,5.2v12.9H1447.5z"/>
	<path d="M1488.7,618.7c-1.6,0-3-0.3-4.3-0.9c-1.2-0.6-2.2-1.5-2.9-2.7c-0.7-1.2-1.1-2.6-1.1-4.4c0-2,0.4-3.6,1.3-4.8
		c0.9-1.2,2.1-2.1,3.5-2.7c1.4-0.6,2.9-1.1,4.5-1.3c1.6-0.3,3-0.5,4.4-0.7c1.2-0.2,2.3-0.4,3-0.6c0.8-0.2,1.3-0.5,1.7-0.9
		c0.3-0.4,0.5-0.9,0.5-1.6c0-0.7-0.2-1.4-0.5-1.9c-0.3-0.5-0.8-1-1.5-1.3c-0.7-0.3-1.5-0.5-2.6-0.5c-1,0-2,0.2-2.9,0.5
		c-0.9,0.4-1.7,0.9-2.3,1.7c-0.6,0.8-1.1,1.7-1.3,2.8l-7-2c0.4-1.6,1-2.9,1.8-4.1s1.8-2.1,3-2.8s2.5-1.3,4-1.7
		c1.5-0.4,3.1-0.6,4.8-0.6c2.2,0,4.1,0.3,5.7,0.8c1.6,0.5,2.9,1.4,3.8,2.5c1,1.1,1.7,2.5,2.1,4.1c0.5,1.6,0.7,3.4,0.7,5.5v4.9
		c0,1.2,0,2.5,0.1,3.9c0,1.3,0.1,2.7,0.2,4c0.1,1.3,0.2,2.6,0.3,4h-7c-0.1-1-0.2-2.1-0.4-3.3c-0.1-1.2-0.2-2.4-0.2-3.7h-0.9
		c-0.5,1.4-1.2,2.7-2.2,3.9c-1,1.2-2.1,2.1-3.5,2.8C1492,618.4,1490.4,618.7,1488.7,618.7z M1492,612.9c0.7,0,1.4-0.1,2.1-0.4
		s1.4-0.6,2.1-1.1c0.7-0.5,1.3-1.1,1.9-1.8c0.6-0.7,1-1.6,1.3-2.5l-0.1-4.3l1.3,0.2c-0.6,0.5-1.4,0.9-2.2,1.1
		c-0.9,0.3-1.8,0.5-2.7,0.6c-0.9,0.1-1.9,0.3-2.8,0.5c-0.9,0.2-1.7,0.4-2.5,0.7c-0.7,0.3-1.3,0.7-1.8,1.2c-0.4,0.5-0.7,1.2-0.7,2.1
		c0,1.1,0.4,2,1.1,2.6C1489.9,612.6,1490.9,612.9,1492,612.9z"/>
	<path d="M1513.8,617.9v-17.4v-11.5h6.5l-0.1,9h1c0.5-2.4,1.2-4.3,2.1-5.7c0.9-1.4,2.1-2.4,3.4-3.1c1.3-0.6,2.9-1,4.5-1
		c1.9,0,3.5,0.3,4.7,1c1.2,0.7,2.2,1.6,2.9,2.7s1.3,2.3,1.7,3.6c0.4,1.3,0.6,2.6,0.7,3.9c0.1,1.3,0.2,2.4,0.2,3.5v15h-7.9v-14.1
		c0-0.7,0-1.5-0.1-2.5c-0.1-1-0.3-2-0.6-2.9c-0.3-1-0.8-1.8-1.5-2.4s-1.7-1-3-1c-1.5,0-2.7,0.5-3.7,1.3c-1,0.9-1.7,2.1-2.2,3.7
		c-0.5,1.5-0.8,3.3-0.8,5.2v12.8H1513.8z"/>
	<path d="M1564.1,617.9V593h-5.3v-6.9c1.7,0,3.1-0.3,4.2-0.9c1.1-0.6,1.8-1.8,2.1-3.6h6.9v36.3H1564.1z"/>
	<path d="M1594.1,618.7c-2.3,0-4.5-0.4-6.4-1.3c-1.9-0.8-3.5-2.1-4.9-3.7c-1.3-1.6-2.4-3.6-3.1-5.9c-0.7-2.3-1.1-5-1.1-7.9
		c0-4.2,0.7-7.7,2-10.5c1.4-2.8,3.2-4.9,5.6-6.4c2.4-1.4,5.1-2.2,8.1-2.2c3.1,0,5.8,0.7,8.1,2.2c2.3,1.5,4.1,3.6,5.4,6.4
		c1.3,2.8,1.9,6.2,1.9,10.3c0,3-0.4,5.7-1.1,8.1c-0.8,2.4-1.8,4.3-3.2,5.9s-3,2.8-4.9,3.7C1598.5,618.3,1596.4,618.7,1594.1,618.7z
		 M1594.2,612.4c1,0,1.9-0.2,2.8-0.7c0.9-0.5,1.7-1.2,2.4-2.1c0.7-1,1.3-2.2,1.7-3.8c0.4-1.6,0.6-3.5,0.6-5.7c0-2.8-0.3-5.1-1-7
		c-0.6-1.9-1.5-3.4-2.6-4.4c-1.1-1-2.4-1.5-4-1.5c-1.2,0-2.4,0.4-3.6,1.2c-1.2,0.8-2.1,2.1-2.9,3.9c-0.8,1.8-1.1,4.3-1.1,7.5
		c0,2.2,0.2,4.2,0.6,5.7c0.4,1.6,1,2.9,1.7,3.9s1.5,1.8,2.4,2.3C1592.2,612.2,1593.2,612.4,1594.2,612.4z"/>
	<path d="M1639.2,627.8c-1.5,0-3-0.1-4.5-0.4c-1.5-0.3-2.9-0.7-4.3-1.2c-1.3-0.5-2.5-1.3-3.4-2.1l2.2-6.9c1.2,1.2,2.6,2.2,4.4,2.8
		c1.7,0.6,3.5,0.9,5.1,0.9c1.8,0,3.3-0.3,4.4-0.9c1.2-0.6,2.1-1.4,2.7-2.5s1.1-2.3,1.4-3.6c0.3-1.4,0.5-2.8,0.5-4.4l0.3-4.5h-1.2
		c-0.3,2.5-0.9,4.5-1.7,6s-1.9,2.7-3.1,3.4c-1.3,0.7-2.8,1.1-4.5,1.1c-1.9,0-3.4-0.4-4.6-1.1c-1.2-0.8-2.2-1.7-2.8-2.9
		c-0.7-1.2-1.1-2.4-1.5-3.8c-0.3-1.3-0.5-2.6-0.6-3.7c-0.1-1.2-0.1-2.1-0.1-2.8v-12h7.9v9.7c0,0.7,0,1.5,0.1,2.4
		c0,0.9,0.1,1.8,0.2,2.7c0.1,0.9,0.4,1.7,0.7,2.4c0.3,0.8,0.8,1.3,1.4,1.8c0.6,0.4,1.3,0.7,2.3,0.7c1.2,0,2.2-0.4,2.9-1.1
		s1.3-1.7,1.7-2.8c0.4-1.1,0.7-2.2,0.8-3.4c0.1-1.2,0.2-2.2,0.3-3v-9.5h7.9v20.7c0,1-0.1,2.2-0.2,3.4c-0.1,1.3-0.3,2.6-0.6,3.9
		c-0.3,1.4-0.8,2.7-1.5,3.9c-0.7,1.3-1.6,2.4-2.7,3.4c-1.1,1-2.5,1.8-4.1,2.4C1643.5,627.5,1641.5,627.8,1639.2,627.8z"/>
	<path d="M1674.5,618.7c-2.4,0-4.5-0.3-6.4-1c-1.9-0.7-3.4-1.6-4.7-2.9s-2.3-2.8-2.9-4.6s-1-3.9-1-6.2c0-2.3,0.3-4.4,1-6.3
		c0.6-1.9,1.6-3.6,2.8-5c1.2-1.4,2.7-2.5,4.5-3.3c1.8-0.8,3.8-1.2,6.1-1.2c2.2,0,4.2,0.4,5.9,1.1s3.1,1.8,4.3,3.2
		c1.1,1.4,2,3.2,2.5,5.2c0.5,2.1,0.7,4.4,0.5,7.1l-22.5,0.2v-4.3l17.8-0.2l-2.6,2.3c0.3-1.9,0.1-3.5-0.4-4.8
		c-0.5-1.2-1.2-2.2-2.2-2.8c-1-0.6-2.1-0.9-3.3-0.9c-1.4,0-2.6,0.4-3.7,1.1s-1.9,1.8-2.4,3.2s-0.9,3.1-0.9,5.1c0,3.1,0.7,5.4,2,6.8
		s3.2,2.2,5.4,2.2c1,0,1.9-0.1,2.6-0.4c0.7-0.3,1.3-0.6,1.8-1.1c0.5-0.4,0.8-0.9,1.1-1.5c0.3-0.5,0.5-1.1,0.6-1.7l6.9,1.4
		c-0.3,1.4-0.7,2.6-1.3,3.7s-1.5,2.1-2.5,2.9c-1,0.8-2.3,1.4-3.8,1.9C1678.3,618.5,1676.5,618.7,1674.5,618.7z"/>
	<path d="M1699.7,618.7c-1.6,0-3-0.3-4.3-0.9c-1.2-0.6-2.2-1.5-2.9-2.7c-0.7-1.2-1.1-2.6-1.1-4.4c0-2,0.4-3.6,1.3-4.8
		c0.9-1.2,2.1-2.1,3.5-2.7c1.4-0.6,2.9-1.1,4.5-1.3c1.6-0.3,3-0.5,4.4-0.7c1.2-0.2,2.3-0.4,3-0.6c0.8-0.2,1.3-0.5,1.7-0.9
		c0.3-0.4,0.5-0.9,0.5-1.6c0-0.7-0.2-1.4-0.5-1.9c-0.3-0.5-0.8-1-1.5-1.3c-0.7-0.3-1.5-0.5-2.6-0.5c-1,0-2,0.2-2.9,0.5
		c-0.9,0.4-1.7,0.9-2.3,1.7c-0.6,0.8-1.1,1.7-1.3,2.8l-7-2c0.4-1.6,1-2.9,1.8-4.1s1.8-2.1,3-2.8s2.5-1.3,4-1.7
		c1.5-0.4,3.1-0.6,4.8-0.6c2.2,0,4.1,0.3,5.7,0.8c1.6,0.5,2.9,1.4,3.8,2.5c1,1.1,1.7,2.5,2.1,4.1c0.5,1.6,0.7,3.4,0.7,5.5v4.9
		c0,1.2,0,2.5,0.1,3.9c0,1.3,0.1,2.7,0.2,4c0.1,1.3,0.2,2.6,0.3,4h-7c-0.1-1-0.2-2.1-0.4-3.3c-0.1-1.2-0.2-2.4-0.2-3.7h-0.9
		c-0.5,1.4-1.2,2.7-2.2,3.9c-1,1.2-2.1,2.1-3.5,2.8C1703,618.4,1701.5,618.7,1699.7,618.7z M1703.1,612.9c0.7,0,1.4-0.1,2.1-0.4
		s1.4-0.6,2.1-1.1c0.7-0.5,1.3-1.1,1.9-1.8c0.6-0.7,1-1.6,1.3-2.5l-0.1-4.3l1.3,0.2c-0.6,0.5-1.4,0.9-2.2,1.1
		c-0.9,0.3-1.8,0.5-2.7,0.6c-0.9,0.1-1.9,0.3-2.8,0.5c-0.9,0.2-1.7,0.4-2.5,0.7c-0.7,0.3-1.3,0.7-1.8,1.2c-0.4,0.5-0.7,1.2-0.7,2.1
		c0,1.1,0.4,2,1.1,2.6C1700.9,612.6,1701.9,612.9,1703.1,612.9z"/>
	<path d="M1724.8,617.9v-14.1v-14.8h6.6l-0.1,10h1c0.3-2.5,0.8-4.5,1.5-6.1s1.7-2.7,2.9-3.5c1.3-0.7,2.8-1.1,4.7-1.1
		c0.4,0,0.8,0,1.2,0.1s0.9,0.1,1.4,0.2l-0.3,8.4c-0.6-0.3-1.3-0.4-1.9-0.6c-0.6-0.1-1.2-0.2-1.8-0.2c-1.4,0-2.6,0.3-3.6,1
		c-1,0.7-1.8,1.6-2.4,2.9c-0.6,1.2-1,2.8-1.3,4.6v13.1H1724.8z"/>
	<path d="M1760,618.7c-1.9,0-3.7-0.2-5.3-0.5c-1.6-0.4-2.9-0.9-4.1-1.6c-1.1-0.7-2.1-1.6-2.8-2.6c-0.7-1-1.1-2.1-1.3-3.4l6.1-2.3
		c0.1,0.8,0.5,1.6,1.2,2.3s1.5,1.3,2.6,1.7c1.1,0.4,2.4,0.6,4,0.6c1.6,0,2.9-0.2,3.8-0.7c0.9-0.5,1.4-1.2,1.4-2.1
		c0-0.7-0.3-1.2-0.8-1.6c-0.5-0.4-1.3-0.8-2.2-1c-1-0.3-2.2-0.6-3.5-0.8c-1.4-0.3-2.8-0.7-4.2-1.1c-1.4-0.4-2.7-0.9-3.9-1.6
		c-1.2-0.7-2.2-1.5-2.9-2.6c-0.7-1.1-1.1-2.4-1.1-4.1c0-1.8,0.5-3.4,1.4-4.7c1-1.3,2.4-2.4,4.2-3.1c1.9-0.8,4.1-1.1,6.7-1.1
		c2.4,0,4.5,0.3,6.3,1c1.8,0.6,3.3,1.6,4.4,2.8c1.1,1.2,1.9,2.7,2.3,4.4l-6.4,2c-0.1-0.9-0.5-1.7-1-2.4c-0.5-0.7-1.3-1.2-2.2-1.5
		c-0.9-0.3-2-0.5-3.3-0.5c-1.5,0-2.7,0.3-3.6,0.8c-0.9,0.5-1.3,1.2-1.3,2c0,0.7,0.3,1.3,0.9,1.7c0.6,0.4,1.4,0.8,2.4,1.1
		s2.2,0.6,3.6,0.9c1.5,0.3,2.9,0.6,4.3,1s2.6,0.9,3.8,1.5c1.1,0.6,2,1.4,2.7,2.5c0.7,1,1,2.4,1,4c0,1.9-0.5,3.5-1.5,4.9
		c-1,1.4-2.5,2.4-4.5,3.1C1765.1,618.3,1762.8,618.7,1760,618.7z"/>
	<path d="M1803.9,618.7c-2.9,0-5.4-0.6-7.6-1.7c-2.2-1.2-3.9-2.9-5.2-5.1c-1.2-2.3-1.9-5.1-1.9-8.4c0-3.4,0.6-6.2,1.9-8.4
		c1.3-2.2,3-3.9,5.2-5c2.2-1.1,4.7-1.7,7.5-1.7c2.9,0,5.4,0.6,7.6,1.7c2.2,1.1,3.9,2.8,5.2,5.1c1.3,2.3,1.9,5.1,1.9,8.4
		c0,3.4-0.6,6.3-1.9,8.5c-1.3,2.2-3,3.9-5.3,5S1806.6,618.7,1803.9,618.7z M1804.1,612.8c0.9,0,1.7-0.1,2.5-0.4
		c0.8-0.3,1.5-0.8,2.1-1.5c0.6-0.7,1.1-1.6,1.4-2.8c0.3-1.2,0.5-2.6,0.5-4.2c0-1.8-0.2-3.2-0.6-4.5c-0.4-1.2-0.9-2.2-1.5-2.9
		c-0.6-0.8-1.4-1.3-2.2-1.6c-0.8-0.3-1.7-0.5-2.6-0.5c-0.8,0-1.7,0.1-2.4,0.4c-0.8,0.3-1.5,0.8-2.1,1.5c-0.6,0.7-1.1,1.6-1.4,2.7
		c-0.4,1.1-0.5,2.5-0.5,4.2c0,1.8,0.2,3.2,0.5,4.5c0.4,1.2,0.9,2.2,1.5,2.9c0.7,0.8,1.4,1.3,2.3,1.6
		C1802.3,612.7,1803.2,612.8,1804.1,612.8z"/>
	<path d="M1826.3,617.9v-18.5h-4.6v-5.8l7.8,0.4v-1c-1.4-0.3-2.5-0.8-3.3-1.4s-1.5-1.4-1.8-2.4c-0.4-0.9-0.6-1.9-0.6-2.9
		c0-1.6,0.4-2.9,1.2-4.1s2-2.1,3.4-2.7c1.5-0.6,3.2-1,5.1-1c1.7,0,3.2,0.2,4.6,0.6s2.5,0.9,3.3,1.6l-0.5,7.2c-0.9-0.7-1.9-1.2-3-1.6
		c-1.1-0.4-2.1-0.6-3.1-0.6c-1.1,0-2,0.3-2.7,0.9c-0.7,0.6-1.1,1.5-1.1,2.8c0,0.9,0.2,1.6,0.6,2.1s0.9,0.9,1.5,1.2
		c0.6,0.3,1.2,0.4,1.8,0.5h6.5v6.2h-7.4v18.5H1826.3z"/>
	<path d="M1425.2,684.7c-2.4,0-4.5-0.3-6.4-1c-1.9-0.7-3.4-1.6-4.7-2.9s-2.3-2.8-2.9-4.6s-1-3.9-1-6.2c0-2.3,0.3-4.4,1-6.3
		c0.6-1.9,1.6-3.6,2.8-5c1.2-1.4,2.7-2.5,4.5-3.3c1.8-0.8,3.8-1.2,6.1-1.2c2.2,0,4.2,0.4,5.9,1.1s3.1,1.8,4.3,3.2
		c1.1,1.4,2,3.2,2.5,5.2c0.5,2.1,0.7,4.4,0.5,7.1l-22.5,0.2v-4.3l17.8-0.2l-2.6,2.3c0.3-1.9,0.1-3.5-0.4-4.8
		c-0.5-1.2-1.2-2.2-2.2-2.8c-1-0.6-2.1-0.9-3.3-0.9c-1.4,0-2.6,0.4-3.7,1.1s-1.9,1.8-2.4,3.2c-0.6,1.4-0.9,3.1-0.9,5.1
		c0,3.1,0.7,5.4,2,6.8c1.4,1.4,3.2,2.2,5.4,2.2c1,0,1.9-0.1,2.6-0.4c0.7-0.3,1.3-0.6,1.8-1.1c0.5-0.4,0.8-0.9,1.1-1.5
		c0.3-0.5,0.5-1.1,0.6-1.7l6.9,1.4c-0.3,1.4-0.7,2.6-1.3,3.7c-0.6,1.1-1.5,2.1-2.5,2.9c-1,0.8-2.3,1.4-3.8,1.9
		C1429,684.5,1427.2,684.7,1425.2,684.7z"/>
	<path d="M1439.8,683.9l9.6-14.5l-9.5-14.4h9.1l5.3,10.8h0.9l5.2-10.8h9.1l-9.5,14.4l9.6,14.5h-9.1l-5.3-10.8h-0.9l-5.2,10.8H1439.8
		z"/>
	<path d="M1473.7,693.1v-23.6v-14.4h6.6v8.1l0.9,0.1c0.4-2,1-3.6,1.8-5c0.8-1.3,1.9-2.3,3.2-3s2.8-1,4.6-1c2.5,0,4.7,0.6,6.5,1.9
		c1.8,1.2,3.2,3,4.2,5.3c1,2.3,1.5,5,1.5,8.2c0,2.9-0.4,5.5-1.3,7.8s-2.2,4-3.9,5.3c-1.7,1.3-3.9,2-6.4,2c-1.8,0-3.4-0.3-4.6-1
		c-1.3-0.7-2.3-1.7-3.2-3c-0.8-1.3-1.5-2.9-2-4.6h-1c0.2,1,0.4,2.1,0.6,3.1c0.2,1,0.3,2.1,0.4,3.1c0.1,1,0.2,1.9,0.2,2.9v8H1473.7z
		 M1488.5,678.3c1.3,0,2.4-0.4,3.3-1.1c0.9-0.7,1.6-1.8,2.1-3.1c0.5-1.3,0.7-2.8,0.7-4.5c0-1.8-0.3-3.4-0.8-4.7
		c-0.5-1.3-1.2-2.3-2.2-3c-1-0.7-2.1-1.1-3.4-1.1c-1.2,0-2.2,0.2-3,0.7s-1.5,1.2-2.1,2c-0.6,0.8-1,1.7-1.2,2.7
		c-0.3,1-0.4,1.9-0.4,2.8v1c0,0.8,0.1,1.5,0.3,2.3c0.2,0.8,0.5,1.5,0.9,2.2s0.9,1.3,1.4,1.9s1.2,1,1.9,1.3
		C1486.8,678.2,1487.7,678.3,1488.5,678.3z"/>
	<path d="M1522,684.7c-2.4,0-4.5-0.3-6.4-1c-1.9-0.7-3.4-1.6-4.7-2.9s-2.3-2.8-2.9-4.6s-1-3.9-1-6.2c0-2.3,0.3-4.4,1-6.3
		c0.6-1.9,1.6-3.6,2.8-5c1.2-1.4,2.7-2.5,4.5-3.3c1.8-0.8,3.8-1.2,6.1-1.2c2.2,0,4.2,0.4,5.9,1.1s3.1,1.8,4.3,3.2
		c1.1,1.4,2,3.2,2.5,5.2c0.5,2.1,0.7,4.4,0.5,7.1l-22.5,0.2v-4.3l17.8-0.2l-2.6,2.3c0.3-1.9,0.1-3.5-0.4-4.8
		c-0.5-1.2-1.2-2.2-2.2-2.8c-1-0.6-2.1-0.9-3.3-0.9c-1.4,0-2.6,0.4-3.7,1.1s-1.9,1.8-2.4,3.2c-0.6,1.4-0.9,3.1-0.9,5.1
		c0,3.1,0.7,5.4,2,6.8c1.4,1.4,3.2,2.2,5.4,2.2c1,0,1.9-0.1,2.6-0.4c0.7-0.3,1.3-0.6,1.8-1.1c0.5-0.4,0.8-0.9,1.1-1.5
		c0.3-0.5,0.5-1.1,0.6-1.7l6.9,1.4c-0.3,1.4-0.7,2.6-1.3,3.7c-0.6,1.1-1.5,2.1-2.5,2.9c-1,0.8-2.3,1.4-3.8,1.9
		C1525.8,684.5,1524,684.7,1522,684.7z"/>
	<path d="M1540.3,683.9v-14.1v-14.8h6.6l-0.1,10h1c0.3-2.5,0.8-4.5,1.5-6.1c0.7-1.6,1.7-2.7,2.9-3.5c1.3-0.7,2.8-1.1,4.7-1.1
		c0.4,0,0.8,0,1.2,0.1c0.4,0,0.9,0.1,1.4,0.2l-0.3,8.4c-0.6-0.3-1.3-0.4-1.9-0.5c-0.6-0.1-1.2-0.2-1.8-0.2c-1.4,0-2.6,0.3-3.6,1
		s-1.8,1.6-2.4,2.9c-0.6,1.2-1,2.8-1.3,4.6v13.1H1540.3z"/>
	<path d="M1567.9,650.9c-1.5,0-2.7-0.3-3.5-1s-1.2-1.6-1.2-2.8c0-1.3,0.4-2.3,1.2-2.9c0.8-0.7,2-1,3.5-1c1.6,0,2.8,0.3,3.6,1
		c0.8,0.7,1.2,1.6,1.2,2.9c0,1.2-0.4,2.1-1.2,2.8C1570.7,650.5,1569.5,650.9,1567.9,650.9z M1563.9,683.9v-28.9h7.9v28.9H1563.9z"/>
	<path d="M1592.3,684.7c-2.4,0-4.5-0.3-6.4-1c-1.9-0.7-3.4-1.6-4.7-2.9s-2.3-2.8-2.9-4.6s-1-3.9-1-6.2c0-2.3,0.3-4.4,1-6.3
		c0.6-1.9,1.6-3.6,2.8-5c1.2-1.4,2.7-2.5,4.5-3.3c1.8-0.8,3.8-1.2,6.1-1.2c2.2,0,4.2,0.4,5.9,1.1s3.1,1.8,4.3,3.2
		c1.1,1.4,2,3.2,2.5,5.2c0.5,2.1,0.7,4.4,0.5,7.1l-22.5,0.2v-4.3l17.8-0.2l-2.6,2.3c0.3-1.9,0.1-3.5-0.4-4.8
		c-0.5-1.2-1.2-2.2-2.2-2.8c-1-0.6-2.1-0.9-3.3-0.9c-1.4,0-2.6,0.4-3.7,1.1s-1.9,1.8-2.4,3.2c-0.6,1.4-0.9,3.1-0.9,5.1
		c0,3.1,0.7,5.4,2,6.8c1.4,1.4,3.2,2.2,5.4,2.2c1,0,1.9-0.1,2.6-0.4c0.7-0.3,1.3-0.6,1.8-1.1c0.5-0.4,0.8-0.9,1.1-1.5
		c0.3-0.5,0.5-1.1,0.6-1.7l6.9,1.4c-0.3,1.4-0.7,2.6-1.3,3.7c-0.6,1.1-1.5,2.1-2.5,2.9c-1,0.8-2.3,1.4-3.8,1.9
		C1596.1,684.5,1594.3,684.7,1592.3,684.7z"/>
	<path d="M1610.6,683.9v-17.4v-11.5h6.5l-0.1,9h1c0.5-2.4,1.2-4.3,2.1-5.7c0.9-1.4,2.1-2.4,3.4-3.1c1.3-0.6,2.9-1,4.5-1
		c1.9,0,3.5,0.3,4.7,1c1.2,0.7,2.2,1.6,2.9,2.7s1.3,2.3,1.7,3.6c0.4,1.3,0.6,2.6,0.7,3.9c0.1,1.3,0.2,2.4,0.2,3.5v15h-7.9v-14.1
		c0-0.7,0-1.5-0.1-2.5c-0.1-1-0.3-2-0.6-2.9c-0.3-1-0.8-1.8-1.5-2.4s-1.7-1-3-1c-1.5,0-2.7,0.4-3.7,1.3c-1,0.9-1.7,2.1-2.2,3.7
		c-0.5,1.5-0.8,3.3-0.8,5.2v12.8H1610.6z"/>
	<path d="M1658.4,684.7c-2.5,0-4.7-0.4-6.5-1.1s-3.4-1.8-4.6-3.1s-2.2-2.9-2.8-4.7c-0.6-1.8-0.9-3.8-0.9-6c0-2.3,0.3-4.4,0.9-6.2
		c0.6-1.9,1.6-3.5,2.8-4.9c1.2-1.4,2.8-2.5,4.6-3.2c1.8-0.8,3.9-1.2,6.3-1.2c1.8,0,3.4,0.2,4.8,0.7c1.4,0.5,2.7,1.1,3.7,1.9
		c1.1,0.8,1.9,1.8,2.6,3c0.7,1.2,1.1,2.4,1.3,3.9l-7.3,2.2c-0.1-1.2-0.4-2.2-0.9-3s-1.1-1.4-2-1.8c-0.8-0.4-1.7-0.6-2.8-0.6
		c-0.9,0-1.7,0.2-2.4,0.5c-0.8,0.3-1.4,0.9-2,1.6c-0.6,0.7-1,1.6-1.3,2.8c-0.3,1.1-0.5,2.5-0.5,4.1c0,2.2,0.3,3.9,0.9,5.3
		c0.6,1.4,1.4,2.4,2.4,3c1.1,0.6,2.3,1,3.7,1s2.6-0.3,3.4-0.9c0.9-0.6,1.5-1.3,1.9-2.2c0.4-0.9,0.7-1.8,0.7-2.8l7,1.5
		c-0.1,1.4-0.5,2.8-1.1,4c-0.6,1.3-1.4,2.4-2.5,3.3c-1.1,1-2.4,1.7-4,2.2C1662.4,684.4,1660.5,684.7,1658.4,684.7z"/>
	<path d="M1689.4,684.7c-2.4,0-4.5-0.3-6.4-1c-1.9-0.7-3.4-1.6-4.7-2.9s-2.3-2.8-2.9-4.6s-1-3.9-1-6.2c0-2.3,0.3-4.4,1-6.3
		c0.6-1.9,1.6-3.6,2.8-5c1.2-1.4,2.7-2.5,4.5-3.3c1.8-0.8,3.8-1.2,6.1-1.2c2.2,0,4.2,0.4,5.9,1.1s3.1,1.8,4.3,3.2
		c1.1,1.4,2,3.2,2.5,5.2c0.5,2.1,0.7,4.4,0.5,7.1l-22.5,0.2v-4.3l17.8-0.2l-2.6,2.3c0.3-1.9,0.1-3.5-0.4-4.8
		c-0.5-1.2-1.2-2.2-2.2-2.8c-1-0.6-2.1-0.9-3.3-0.9c-1.4,0-2.6,0.4-3.7,1.1s-1.9,1.8-2.4,3.2c-0.6,1.4-0.9,3.1-0.9,5.1
		c0,3.1,0.7,5.4,2,6.8c1.4,1.4,3.2,2.2,5.4,2.2c1,0,1.9-0.1,2.6-0.4c0.7-0.3,1.3-0.6,1.8-1.1c0.5-0.4,0.8-0.9,1.1-1.5
		c0.3-0.5,0.5-1.1,0.6-1.7l6.9,1.4c-0.3,1.4-0.7,2.6-1.3,3.7c-0.6,1.1-1.5,2.1-2.5,2.9c-1,0.8-2.3,1.4-3.8,1.9
		C1693.2,684.5,1691.4,684.7,1689.4,684.7z"/>
</g>
<g>
	<path d="M128.4,531.9v-36.3h7.9v36.3H128.4z M133.1,516.8v-6.5h22.1v6.5H133.1z M152,531.9v-36.3h7.9v36.3H152z"/>
	<path d="M171.3,498.9c-1.5,0-2.7-0.3-3.5-1s-1.2-1.6-1.2-2.8c0-1.3,0.4-2.3,1.2-2.9c0.8-0.7,2-1,3.5-1c1.6,0,2.8,0.3,3.6,1
		c0.8,0.7,1.2,1.6,1.2,2.9c0,1.2-0.4,2.1-1.2,2.8C174.1,498.5,172.9,498.9,171.3,498.9z M167.3,531.9v-28.9h7.9v28.9H167.3z"/>
	<path d="M193.7,541.9c-3.2,0-5.8-0.2-7.8-0.7c-2-0.5-3.5-1.2-4.4-2.2c-0.9-1-1.4-2.1-1.4-3.5c0-1.7,0.7-3.1,2-4.1
		c1.3-1.1,3.3-1.7,5.9-1.9v-1c-2,0-3.5-0.2-4.6-0.7s-1.6-1.2-1.6-2.3c0-1,0.5-1.9,1.5-2.8c1-0.8,2.8-1.4,5.2-1.9v-1
		c-2.2-0.2-4-0.9-5.3-2.3c-1.3-1.3-1.9-3-1.9-5.1c0-1.8,0.5-3.5,1.5-4.9c1-1.4,2.5-2.6,4.6-3.5c2-0.9,4.5-1.3,7.4-1.3h14.6v6.1
		l-9.2-1.3v1.2c2.4,0.4,4.1,1,5.2,1.8c1.1,0.9,1.6,2,1.6,3.5c0,1.5-0.5,2.8-1.5,4c-1,1.1-2.4,2-4.2,2.7c-1.8,0.6-4,1-6.6,1
		c-0.5,0-1,0-1.6-0.1c-0.6-0.1-1.5-0.2-2.7-0.3c-0.7,0.5-1.2,1-1.6,1.4c-0.4,0.4-0.6,0.7-0.6,1c0,0.3,0.1,0.5,0.4,0.6
		c0.3,0.2,0.6,0.3,1.1,0.4c0.4,0.1,0.9,0.1,1.4,0.1h8.3c0.7,0,1.7,0.1,2.9,0.2c1.2,0.1,2.3,0.4,3.5,0.9c1.2,0.5,2.2,1.2,3,2.3
		s1.2,2.5,1.2,4.5c0,2.1-0.6,3.9-1.8,5.3c-1.2,1.4-3,2.4-5.4,3.1C200.5,541.5,197.4,541.9,193.7,541.9z M194.6,535.5
		c2.2,0,4-0.1,5.3-0.4c1.3-0.2,2.2-0.6,2.7-1.1c0.5-0.5,0.8-1.2,0.8-1.9c0-0.7-0.2-1.3-0.5-1.7c-0.3-0.4-0.7-0.7-1.2-0.9
		s-1-0.3-1.5-0.3c-0.5,0-0.9-0.1-1.3-0.1h-7c-1.5,0.1-2.6,0.5-3.3,1.2c-0.7,0.7-1,1.4-1,2.3c0,0.7,0.3,1.3,0.8,1.7s1.3,0.7,2.3,0.9
		S193,535.5,194.6,535.5z M194.5,517.5c1.7,0,3-0.4,3.9-1.3c0.9-0.9,1.3-2,1.3-3.3c0-1.5-0.4-2.7-1.3-3.6c-0.9-1-2.2-1.4-3.9-1.4
		c-1.7,0-3,0.5-3.9,1.4c-0.9,0.9-1.4,2.1-1.4,3.6c0,0.9,0.2,1.7,0.6,2.4c0.4,0.7,1,1.3,1.8,1.6C192.4,517.3,193.4,517.5,194.5,517.5
		z"/>
	<path d="M215.1,531.9v-17.9v-21.3h7.9v8.9c0,0.7,0,1.5-0.1,2.4c-0.1,0.8-0.1,1.7-0.2,2.6c-0.1,0.9-0.2,1.8-0.4,2.6
		c-0.1,0.9-0.3,1.7-0.5,2.6h1.2c0.5-2,1.2-3.7,2-5.1c0.8-1.4,1.8-2.5,3.1-3.2c1.3-0.8,2.9-1.1,4.8-1.1c1.9,0,3.5,0.4,4.8,1.1
		c1.2,0.7,2.2,1.6,2.9,2.8c0.7,1.1,1.2,2.4,1.5,3.7c0.3,1.3,0.5,2.6,0.6,3.9c0.1,1.3,0.1,2.4,0.1,3.4v14.8h-7.9V518
		c0-1.4-0.1-2.6-0.3-3.7c-0.2-1.1-0.5-2.1-0.9-2.9c-0.4-0.8-0.9-1.4-1.6-1.9c-0.7-0.4-1.5-0.7-2.5-0.7c-1.5,0-2.7,0.4-3.6,1.3
		c-1,0.9-1.7,2.1-2.2,3.6c-0.5,1.5-0.8,3.3-0.8,5.2v12.9H215.1z"/>
	<path d="M281.8,541.1v-8c0-0.9,0.1-1.9,0.2-2.8c0.1-1,0.3-2,0.5-3c0.2-1,0.4-2.1,0.6-3.1h-1c-0.5,1.8-1.2,3.3-2,4.6
		c-0.8,1.3-1.9,2.3-3.2,3c-1.3,0.7-2.8,1-4.7,1c-2.5,0-4.7-0.7-6.4-2s-3-3.1-3.9-5.3c-0.9-2.3-1.3-4.8-1.3-7.8
		c0-3.2,0.5-5.9,1.5-8.2s2.4-4.1,4.2-5.3c1.8-1.2,4-1.9,6.5-1.9c1.8,0,3.3,0.3,4.6,1c1.3,0.7,2.4,1.6,3.2,2.9
		c0.8,1.3,1.4,2.9,1.7,4.9h1l-0.1-8h6.6v14v23.9H281.8z M275,526.3c0.9,0,1.7-0.2,2.4-0.5s1.3-0.8,1.9-1.3c0.5-0.6,1-1.2,1.4-1.9
		c0.4-0.7,0.7-1.5,0.9-2.2s0.3-1.5,0.3-2.3v-1c0-0.9-0.1-1.9-0.4-2.8c-0.3-1-0.7-1.9-1.2-2.7c-0.5-0.8-1.2-1.5-2.1-2
		c-0.8-0.5-1.8-0.8-3-0.8c-1.3,0-2.4,0.4-3.4,1.1c-1,0.7-1.7,1.8-2.2,3.1c-0.5,1.3-0.8,2.9-0.8,4.7c0,1.6,0.2,3.1,0.7,4.5
		c0.5,1.3,1.2,2.3,2.1,3.1C272.6,526,273.7,526.3,275,526.3z"/>
	<path d="M306.5,532.7c-1.4,0-2.7-0.2-3.8-0.6c-1.1-0.4-2-1-2.8-1.8c-0.8-0.8-1.4-1.7-2-2.9c-0.5-1.1-0.9-2.4-1.2-3.9
		c-0.3-1.4-0.4-3.1-0.4-4.8v-15.7h8v14c0,0.8,0,1.7,0.1,2.8c0.1,1,0.2,2,0.5,3c0.3,1,0.8,1.8,1.5,2.4c0.7,0.6,1.7,0.9,2.9,0.9
		c1,0,1.9-0.2,2.7-0.7c0.8-0.5,1.4-1.2,2-2.1c0.5-0.9,1-2,1.2-3.3c0.3-1.3,0.4-2.6,0.5-4.2v-12.7h7.9V520v11.9h-6.4v-9.2h-1
		c-0.5,2.3-1.1,4.3-2,5.7c-0.8,1.5-1.9,2.5-3.2,3.2C309.8,532.4,308.3,532.7,306.5,532.7z"/>
	<path d="M337.5,532.7c-1.6,0-3-0.3-4.3-0.9c-1.2-0.6-2.2-1.5-2.9-2.7c-0.7-1.2-1.1-2.6-1.1-4.4c0-2,0.4-3.6,1.3-4.8
		c0.9-1.2,2.1-2.1,3.5-2.7c1.4-0.6,2.9-1.1,4.5-1.3c1.6-0.3,3-0.5,4.4-0.7c1.2-0.2,2.3-0.4,3-0.6c0.8-0.2,1.3-0.5,1.7-0.9
		c0.3-0.4,0.5-0.9,0.5-1.6c0-0.7-0.2-1.4-0.5-1.9c-0.3-0.5-0.8-1-1.5-1.3c-0.7-0.3-1.5-0.5-2.6-0.5c-1,0-2,0.2-2.9,0.6
		c-0.9,0.4-1.7,0.9-2.3,1.7c-0.6,0.8-1.1,1.7-1.3,2.8l-7-2c0.4-1.6,1-2.9,1.8-4.1c0.8-1.1,1.8-2.1,3-2.8c1.2-0.8,2.5-1.3,4-1.7
		c1.5-0.4,3.1-0.5,4.8-0.5c2.2,0,4.1,0.3,5.7,0.8c1.6,0.5,2.9,1.4,3.8,2.5c1,1.1,1.7,2.5,2.1,4.1c0.5,1.6,0.7,3.4,0.7,5.5v4.9
		c0,1.2,0,2.5,0.1,3.9c0,1.3,0.1,2.7,0.2,4c0.1,1.3,0.2,2.6,0.3,4h-7c-0.1-1-0.2-2.1-0.4-3.3c-0.1-1.2-0.2-2.4-0.2-3.7h-0.9
		c-0.5,1.4-1.2,2.7-2.2,3.9c-1,1.2-2.1,2.1-3.5,2.8C340.8,532.4,339.2,532.7,337.5,532.7z M340.8,526.9c0.7,0,1.4-0.1,2.1-0.4
		c0.7-0.2,1.4-0.6,2.1-1.1c0.7-0.5,1.3-1.1,1.9-1.8c0.6-0.7,1-1.6,1.3-2.5l-0.1-4.3l1.3,0.2c-0.6,0.5-1.4,0.9-2.2,1.1
		c-0.9,0.3-1.8,0.5-2.7,0.6c-0.9,0.1-1.9,0.3-2.8,0.5c-0.9,0.2-1.7,0.4-2.5,0.7c-0.7,0.3-1.3,0.7-1.8,1.2c-0.4,0.5-0.7,1.2-0.7,2.1
		c0,1.1,0.4,2,1.1,2.6C338.7,526.6,339.6,526.9,340.8,526.9z"/>
	<path d="M362.6,531.9v-39.2h7.8v39.2H362.6z"/>
	<path d="M381.4,498.9c-1.5,0-2.7-0.3-3.5-1s-1.2-1.6-1.2-2.8c0-1.3,0.4-2.3,1.2-2.9c0.8-0.7,2-1,3.5-1c1.6,0,2.8,0.3,3.6,1
		c0.8,0.7,1.2,1.6,1.2,2.9c0,1.2-0.4,2.1-1.2,2.8C384.2,498.5,383,498.9,381.4,498.9z M377.4,531.9v-28.9h7.9v28.9H377.4z"/>
	<path d="M403.2,532.6c-1.6,0-3-0.2-4.1-0.6c-1.2-0.4-2.2-1-2.9-1.9c-0.8-0.9-1.4-2-1.8-3.3c-0.4-1.4-0.6-3-0.6-4.8v-12.7h-4.1
		l0.2-6.1h2.6c1.2,0,2.1-0.2,2.7-0.6c0.6-0.4,0.9-1.1,1-2.1l0.7-3.9h4.5v6.4h7.3v6.4h-7.3v12c0,1.5,0.4,2.5,1.1,3
		c0.7,0.5,1.6,0.8,2.7,0.8c0.7,0,1.3-0.1,2-0.2s1.2-0.4,1.7-0.7v7.4c-1.1,0.3-2.2,0.5-3.1,0.7C404.7,532.5,403.9,532.6,403.2,532.6z
		"/>
	<path d="M425,541.8c-1.5,0-3-0.1-4.5-0.4c-1.5-0.3-2.9-0.7-4.3-1.2c-1.3-0.5-2.5-1.3-3.4-2.1l2.2-6.9c1.2,1.2,2.6,2.2,4.4,2.8
		c1.7,0.6,3.5,0.9,5.1,0.9c1.8,0,3.3-0.3,4.4-0.9c1.2-0.6,2.1-1.4,2.7-2.5s1.1-2.3,1.4-3.6c0.3-1.4,0.5-2.8,0.5-4.4l0.3-4.5h-1.2
		c-0.3,2.5-0.9,4.5-1.7,6s-1.9,2.7-3.1,3.4c-1.3,0.7-2.8,1.1-4.5,1.1c-1.9,0-3.4-0.4-4.6-1.1c-1.2-0.8-2.2-1.7-2.8-2.9
		c-0.7-1.2-1.1-2.4-1.5-3.8c-0.3-1.3-0.5-2.6-0.6-3.7c-0.1-1.2-0.1-2.1-0.1-2.8v-12h7.9v9.7c0,0.7,0,1.5,0.1,2.4
		c0,0.9,0.1,1.8,0.2,2.7c0.1,0.9,0.4,1.7,0.7,2.4c0.3,0.8,0.8,1.3,1.4,1.8c0.6,0.4,1.3,0.7,2.3,0.7c1.2,0,2.2-0.4,2.9-1.1
		c0.7-0.7,1.3-1.6,1.7-2.8c0.4-1.1,0.7-2.2,0.8-3.4c0.1-1.2,0.2-2.2,0.3-3v-9.5h7.9v20.7c0,1-0.1,2.2-0.2,3.4
		c-0.1,1.3-0.3,2.6-0.6,3.9c-0.3,1.4-0.8,2.7-1.5,3.9c-0.7,1.3-1.6,2.4-2.7,3.4c-1.1,1-2.5,1.8-4.1,2.4
		C429.2,541.5,427.3,541.8,425,541.8z"/>
	<path d="M463.9,531.9l-7.1-28.9h8.2l4.1,22.5h0.9l4.8-22.5h9.4l5,22.5h1l4-22.5h8l-7.1,28.9h-10.9l-4.4-22.3h-0.9l-4.3,22.3H463.9z
		"/>
	<path d="M519.5,532.7c-2.9,0-5.4-0.6-7.6-1.7c-2.2-1.2-3.9-2.9-5.2-5.1c-1.2-2.3-1.9-5.1-1.9-8.4c0-3.4,0.6-6.2,1.9-8.4
		c1.3-2.2,3-3.9,5.2-5c2.2-1.1,4.7-1.7,7.5-1.7c2.9,0,5.4,0.6,7.6,1.7c2.2,1.1,3.9,2.8,5.2,5.1c1.3,2.3,1.9,5.1,1.9,8.4
		c0,3.4-0.6,6.3-1.9,8.5c-1.3,2.2-3,3.9-5.3,5C524.7,532.2,522.2,532.7,519.5,532.7z M519.7,526.8c0.9,0,1.7-0.1,2.5-0.4
		c0.8-0.3,1.5-0.8,2.1-1.5c0.6-0.7,1.1-1.6,1.4-2.8c0.3-1.2,0.5-2.6,0.5-4.2c0-1.8-0.2-3.2-0.6-4.5c-0.4-1.2-0.9-2.2-1.5-2.9
		c-0.6-0.8-1.4-1.3-2.2-1.6c-0.8-0.3-1.7-0.5-2.6-0.5c-0.8,0-1.7,0.1-2.4,0.4c-0.8,0.3-1.5,0.8-2.1,1.5c-0.6,0.7-1.1,1.6-1.4,2.7
		c-0.4,1.1-0.5,2.5-0.5,4.2c0,1.8,0.2,3.2,0.5,4.5c0.4,1.2,0.9,2.2,1.5,2.9c0.7,0.8,1.4,1.3,2.3,1.6
		C517.9,526.7,518.8,526.8,519.7,526.8z"/>
	<path d="M539.7,531.9v-14.1v-14.8h6.6l-0.1,10h1c0.3-2.5,0.8-4.5,1.5-6.1c0.7-1.6,1.7-2.7,2.9-3.5c1.3-0.7,2.8-1.1,4.7-1.1
		c0.4,0,0.8,0,1.2,0.1c0.4,0,0.9,0.1,1.4,0.2l-0.3,8.4c-0.6-0.3-1.3-0.4-1.9-0.5c-0.6-0.1-1.2-0.2-1.8-0.2c-1.4,0-2.6,0.3-3.6,1
		c-1,0.7-1.8,1.6-2.4,2.9c-0.6,1.2-1,2.8-1.3,4.6v13.1H539.7z"/>
	<path d="M563.3,531.9v-39.3h7.8v21.8c1.2-0.8,2.3-1.6,3.3-2.5c1-0.9,2-1.8,2.9-2.8c0.9-1,1.6-2,2.3-3c0.7-1,1.2-2,1.6-3h9.1
		c-0.5,1.4-1.2,2.8-2.1,4.2c-0.9,1.4-2,2.7-3.2,3.9c-1.2,1.2-2.6,2.2-4.2,3.1c-1.6,0.8-3.4,1.4-5.3,1.8v0.9c2.5-0.4,4.5-0.4,6.1,0.1
		c1.6,0.5,2.9,1.3,3.9,2.4c1,1.1,1.9,2.3,2.5,3.7c0.6,1.4,1.2,2.9,1.6,4.3l1.3,4.5h-8.6l-0.7-2.9c-0.5-1.8-1.1-3.3-1.6-4.6
		c-0.6-1.3-1.4-2.4-2.4-3.1c-1-0.8-2.4-1.1-4.2-1.1h-2.3v11.7H563.3z"/>
</g>
<path class="st0" d="M311,414c-2.2-47.6-57.7,2.3-82-31s39.6-61.2,22-87s-61.7,8.4-70-31s42-27.6,22-62s-45-20-45-20"/>
<path class="st0" d="M329.3,400.6c0,0-18.3,9.6-16.9,23.1c1.3,13.5-0.1-12.2-12.1-18.1"/>
<g>
	<path d="M599,490c-0.7,0-1.4-0.4-1.8-1c-0.5-1-0.2-2.2,0.8-2.7c0.1-0.1,9.2-5.1,20.1-10.1c1-0.5,2.2,0,2.6,1c0.5,1,0,2.2-1,2.6
		c-10.8,4.9-19.8,9.9-19.9,9.9C599.7,489.9,599.3,490,599,490z"/>
</g>
<g>
	<path d="M587.8,485.6c-0.4,0-0.9-0.1-1.2-0.4c-0.9-0.7-1-1.9-0.4-2.8c0.1-0.1,6.4-8.3,14.5-17.2c0.7-0.8,2-0.9,2.8-0.1
		c0.8,0.7,0.9,2,0.1,2.8c-8,8.8-14.2,16.9-14.3,17C589,485.3,588.4,485.6,587.8,485.6z"/>
</g>
<g>
	<path d="M601.3,501.3c-0.8,0-1.6-0.5-1.9-1.3c-0.4-1,0.2-2.2,1.2-2.6c0.1,0,9.9-3.6,21.5-6.7c1.1-0.3,2.2,0.3,2.5,1.4
		c0.3,1.1-0.3,2.2-1.4,2.5c-11.4,3.1-21.1,6.6-21.2,6.6C601.8,501.3,601.6,501.3,601.3,501.3z"/>
</g>
<g>
	<path d="M123.2,491.9c-0.5,0-1.1-0.2-1.4-0.7c-0.1-0.1-5.6-7.4-11.3-16.4c-0.5-0.8-0.3-1.9,0.5-2.4c0.8-0.5,1.9-0.3,2.4,0.5
		c5.6,8.9,11.1,16.1,11.2,16.2c0.6,0.8,0.4,1.9-0.3,2.5C124,491.8,123.6,491.9,123.2,491.9z"/>
</g>
<g>
	<path d="M120.7,502.3c-0.3,0-0.6-0.1-0.9-0.2c-0.1,0-8.1-4.6-16.9-10.6c-0.8-0.6-1-1.7-0.5-2.5c0.6-0.8,1.7-1,2.5-0.5
		c8.7,5.9,16.6,10.4,16.7,10.4c0.9,0.5,1.1,1.6,0.7,2.4C121.9,501.9,121.3,502.3,120.7,502.3z"/>
</g>
<g>
	<path d="M132.9,488.4c-0.6,0-1.2-0.3-1.6-0.9c0-0.1-4.4-8.2-8.6-18c-0.4-0.9,0-1.9,0.9-2.3c0.9-0.4,1.9,0,2.3,0.9
		c4.2,9.7,8.4,17.7,8.4,17.8c0.5,0.9,0.1,1.9-0.7,2.4C133.5,488.4,133.2,488.4,132.9,488.4z"/>
</g>
<g>
	<path d="M1269.2,572.5c1.4,2.5,3,6.9,3,8c0.1,2.7-4.4-3-5.8-5.6c-1.4-2.5-1.9-4.5-0.9-5C1266.5,569.4,1267.8,570,1269.2,572.5z"/>
</g>
<g>
	<path d="M1274.8,568.9c0.3,2.9,0,7.5-0.5,8.6c-1,2.5-2.8-4.6-3.1-7.4c-0.3-2.9,0.1-4.9,1.2-5C1273.6,564.9,1274.6,566,1274.8,568.9
		z"/>
</g>
<g>
	<path d="M1262.6,574.8c2.3,1.8,5.4,5.3,5.8,6.3c1.1,2.5-5.2-1.1-7.5-3c-2.3-1.8-3.4-3.5-2.7-4.3
		C1258.9,572.9,1260.3,572.9,1262.6,574.8z"/>
</g>
<g>
	<path d="M1711.5,648.6c-1.7,2.3-5.1,5.6-6.1,6.1c-2.4,1.2,0.9-5.3,2.6-7.6c1.7-2.3,3.3-3.6,4.2-2.9S1713.2,646.3,1711.5,648.6z"/>
</g>
<g>
	<path d="M1717.1,652.2c-2.5,1.4-6.9,3.1-8,3.1c-2.7,0.1,3-4.5,5.5-5.9c2.5-1.4,4.5-2,5-1C1720.2,649.4,1719.6,650.7,1717.1,652.2z"
		/>
</g>
<g>
	<path d="M1706.7,643.5c-0.7,2.8-2.6,7.1-3.3,7.9c-1.8,2-1.1-5.2-0.4-8.1s1.7-4.6,2.8-4.3C1706.8,639.4,1707.4,640.7,1706.7,643.5z"
		/>
</g>
</svg>
